<svg width="155" height="249" viewBox="0 0 155 249" fill="none" xmlns="http://www.w3.org/2000/svg">
<line x1="70.4999" y1="5.01953" x2="69.4999" y2="133.02" stroke="black" stroke-width="5"/>
<line x1="68" y1="2.5" x2="155" y2="2.5" stroke="black" stroke-width="5"/>
<line x1="152.5" y1="1" x2="152.5" y2="53" stroke="black" stroke-width="5"/>
<path d="M2 190C2 182.555 3.6772 175.175 6.94546 168.278C10.2143 161.38 15.0143 155.094 21.0865 149.787C27.1592 144.479 34.3825 140.256 42.3497 137.372C50.317 134.487 58.8637 133 67.5 133C76.1363 133 84.683 134.487 92.6503 137.372C100.618 140.256 107.841 144.479 113.913 149.787C119.986 155.094 124.786 161.38 128.055 168.278C131.323 175.175 133 182.555 133 190" stroke="black" stroke-width="4"/>
</svg>
