<svg width="171" height="251" viewBox="0 0 171 251" fill="none" xmlns="http://www.w3.org/2000/svg">
<line x1="69.4999" y1="5.01953" x2="68.4999" y2="133.02" stroke="black" stroke-width="5"/>
<line x1="67" y1="2.5" x2="154" y2="2.5" stroke="black" stroke-width="5"/>
<line x1="151.5" y1="1" x2="151.5" y2="53" stroke="black" stroke-width="5"/>
<path d="M149.5 74.5C159.68 74.5 168.5 67.1826 168.5 57.5C168.5 47.8174 159.68 40.5 149.5 40.5C139.32 40.5 130.5 47.8174 130.5 57.5C130.5 67.1826 139.32 74.5 149.5 74.5Z" fill="white" stroke="black" stroke-width="5"/>
<path d="M2 192C2 184.555 3.6772 177.175 6.94546 170.278C10.2143 163.38 15.0143 157.094 21.0865 151.787C27.1592 146.479 34.3825 142.256 42.3497 139.372C50.317 136.487 58.8637 135 67.5 135C76.1363 135 84.683 136.487 92.6503 139.372C100.618 142.256 107.841 146.479 113.913 151.787C119.986 157.094 124.786 163.38 128.055 170.278C131.323 177.175 133 184.555 133 192" stroke="black" stroke-width="4"/>
</svg>
