<svg width="172" height="251" viewBox="0 0 172 251" fill="none" xmlns="http://www.w3.org/2000/svg">
<line x1="70.4999" y1="5.01953" x2="69.4999" y2="133.02" stroke="black" stroke-width="5"/>
<line x1="68" y1="2.5" x2="155" y2="2.5" stroke="black" stroke-width="5"/>
<line x1="152.5" y1="1" x2="152.5" y2="53" stroke="black" stroke-width="5"/>
<path d="M150.5 74.5C160.68 74.5 169.5 67.1826 169.5 57.5C169.5 47.8174 160.68 40.5 150.5 40.5C140.32 40.5 131.5 47.8174 131.5 57.5C131.5 67.1826 140.32 74.5 150.5 74.5Z" fill="white" stroke="black" stroke-width="5"/>
<line x1="152.5" y1="72" x2="152.5" y2="109" stroke="black" stroke-width="5"/>
<line x1="152.151" y1="107.275" x2="136.151" y2="134.275" stroke="black" stroke-width="5"/>
<line x1="153.151" y1="86.2745" x2="137.151" y2="113.275" stroke="black" stroke-width="5"/>
<line x1="168.849" y1="134.275" x2="152.849" y2="107.274" stroke="black" stroke-width="5"/>
<line x1="168.849" y1="113.275" x2="152.849" y2="86.2745" stroke="black" stroke-width="5"/>
<line x1="147.584" y1="56.2774" x2="143.584" y2="50.2774" stroke="black"/>
<line x1="147.416" y1="50.2774" x2="143.416" y2="56.2774" stroke="black"/>
<path d="M2 192C2 184.555 3.6772 177.175 6.94546 170.278C10.2143 163.38 15.0143 157.094 21.0865 151.787C27.1592 146.479 34.3825 142.256 42.3497 139.372C50.317 136.487 58.8637 135 67.5 135C76.1363 135 84.683 136.487 92.6503 139.372C100.618 142.256 107.841 146.479 113.913 151.787C119.986 157.094 124.786 163.38 128.055 170.278C131.323 177.175 133 184.555 133 192" stroke="black" stroke-width="4"/>
<line x1="157.584" y1="56.2774" x2="153.584" y2="50.2774" stroke="black"/>
<line x1="157.416" y1="50.2774" x2="153.416" y2="56.2774" stroke="black"/>
<path d="M147.45 65C147.45 64.0585 147.824 63.1555 148.49 62.4898C149.156 61.824 150.058 61.45 151 61.45C151.942 61.45 152.844 61.824 153.51 62.4898C154.176 63.1555 154.55 64.0585 154.55 65" stroke="black" stroke-width="0.9"/>
</svg>
